<?xml version="1.0" encoding="iso-8859-1"?>
<!-- Uploaded to: SVG Repo, www.svgrepo.com, Generator: SVG Repo Mixer Tools -->
<!DOCTYPE svg PUBLIC "-//W3C//DTD SVG 1.1//EN" "http://www.w3.org/Graphics/SVG/1.1/DTD/svg11.dtd">
<svg fill="#000000" height="800px" width="800px" version="1.1" id="Capa_1" xmlns="http://www.w3.org/2000/svg" xmlns:xlink="http://www.w3.org/1999/xlink" 
	 viewBox="0 0 424.815 424.815" xml:space="preserve">
<g>
	<path d="M271.724,172.833c-0.003,0-0.005,0-0.008,0c-1.089,0.003-2.013,0.702-2.352,1.674c-0.51,0.253-1.733,0.616-3.526,0.62
		c-0.01,0-0.02,0-0.03,0c-1.777,0-2.992-0.355-3.5-0.605c-0.344-0.97-1.27-1.664-2.357-1.664c-0.003,0-0.005,0-0.008,0
		c-1.381,0.004-2.496,1.127-2.492,2.508c0.009,2.851,3.364,4.761,8.354,4.761c0.015,0,0.029,0,0.044,0
		c1.874-0.004,3.672-0.305,5.064-0.848c2.889-1.127,3.314-2.961,3.312-3.954C274.22,173.947,273.101,172.833,271.724,172.833z"/>
	<path d="M258.549,163.384c0-0.66-0.26-1.31-0.729-1.77c-0.931-0.93-2.601-0.93-3.53,0c-0.47,0.46-0.73,1.11-0.73,1.77
		c0,0.66,0.261,1.3,0.73,1.77c0.46,0.46,1.11,0.73,1.76,0.73c0.66,0,1.311-0.27,1.771-0.73
		C258.289,164.684,258.549,164.044,258.549,163.384z"/>
	<path d="M273.849,161.614c-0.46,0.46-0.729,1.11-0.729,1.77c0,0.66,0.27,1.3,0.729,1.77c0.471,0.46,1.11,0.73,1.771,0.73
		c0.66,0,1.3-0.27,1.77-0.73c0.46-0.47,0.73-1.11,0.73-1.77c0-0.66-0.271-1.31-0.73-1.77
		C276.459,160.684,274.789,160.684,273.849,161.614z"/>
	<path d="M326.769,292.428l-19.365-80.01l0.686-0.607c0.673-0.597,0.974-1.509,0.787-2.389c-0.126-0.598-3.256-14.636-17.606-17.985
		l-12.948-4.494v-0.626c0.73-0.601,1.426-1.262,2.088-1.974h18.863c1.381,0,2.5-1.119,2.5-2.5c0-22.858-5.219-39.24-15.513-48.691
		c-9.046-8.306-18.722-8.068-20.425-8.068c-1.719,0-11.385-0.229-20.421,8.068c-3.255,2.988-5.998,6.672-8.233,11.031l-7.163-32.339
		c-0.193-0.852-4.959-20.921-24.787-25.582l-16.327-3.918v-5.797c10.202-0.479,17.557-3.933,21.869-10.298
		c8.575-12.658,1.816-32.253,0.571-35.575c-0.096-8.885-2.927-16.061-8.418-21.334c-9.991-9.594-24.474-9.339-26.72-9.339
		c-2.246,0-16.729-0.255-26.721,9.339c-5.491,5.273-8.322,12.448-8.418,21.334c-1.245,3.322-8.004,22.917,0.572,35.575
		c4.313,6.366,11.666,9.82,21.868,10.298v5.797l-16.316,3.916c-19.841,4.663-24.604,24.733-24.799,25.597L98.113,221.466
		c-0.644,2.846-0.139,5.773,1.419,8.239c1.559,2.467,3.984,4.179,6.83,4.822c0.807,0.182,1.619,0.272,2.427,0.272
		c2.041,0,4.044-0.575,5.813-1.692c2.438-1.541,4.141-3.93,4.8-6.734l25.24-82.905c0.777,0.515,1.594,0.926,2.447,1.204
		l0.691,11.741c-3.236,4.973-6.163,11.857-8.705,20.48c-12.657,42.948-3.048,116.178-2.632,119.274
		c0.166,1.241,1.226,2.168,2.477,2.168h7.441c0.217,10.015,1.703,49.387,11.822,104.376c-0.32,1.921-2.383,11.839-11.571,17.473
		c-0.954,0.585-1.403,1.733-1.1,2.81c0.304,1.077,1.287,1.821,2.406,1.821h28.286h28.285c1.119,0,2.103-0.744,2.406-1.821
		c0.304-1.078-0.146-2.225-1.1-2.81c-9.191-5.636-11.252-15.56-11.57-17.476c9.994-54.31,11.566-93.385,11.813-103.989
		c1.169,1.783,2.949,3.021,5.032,3.486c0.597,0.133,1.193,0.197,1.781,0.197c3.683,0,7.018-2.515,7.921-6.223l19.349-55.711
		l0.891,7.218c-3.263,5.624-22.155,39.909-22.155,79.535c0,1.381,1.119,2.5,2.5,2.5h14.893c0.354,29.04,6.814,68.281,8.626,78.744
		c-7.554,1.594-11.189,9.128-12.095,13.322c-0.16,0.739,0.024,1.51,0.498,2.098c0.475,0.588,1.189,0.93,1.945,0.93h25.168
		c0.663,0,1.299-0.264,1.768-0.732c0.47-0.469,0.732-1.105,0.732-1.768l-0.024-92.593h5.938l-0.025,92.593
		c0,0.663,0.263,1.299,0.733,1.768c0.469,0.469,1.104,0.732,1.767,0.732h25.166c0.756,0,1.471-0.342,1.945-0.93
		c0.475-0.588,0.658-1.359,0.498-2.098c-0.905-4.194-4.54-11.728-12.095-13.322c1.811-10.463,8.273-49.703,8.628-78.744h14.891
		c1.381,0,2.5-1.119,2.5-2.5c0-39.628-18.893-73.915-22.153-79.535l0.891-7.22l19.349,55.712c0.5,2.06,1.757,3.815,3.552,4.954
		c1.323,0.839,2.824,1.272,4.353,1.272c0.597,0,1.198-0.066,1.795-0.199c2.125-0.475,3.938-1.749,5.105-3.588
		C326.873,296.778,327.254,294.595,326.769,292.428z M290.023,196.279c9.096,2.069,12.529,9.692,13.575,12.83l-14.13,12.524
		c-0.456,0.404-0.748,0.961-0.823,1.565l-1.608,13.036h-42.398l-1.608-13.036c-0.075-0.604-0.367-1.161-0.823-1.565l-14.13-12.523
		c1.122-4.123,8.079-11.579,13.577-12.83c0.09-0.02,10.273-3.549,10.273-3.549c0.522,5.017,2.91,12.292,13.91,12.292
		c10.988,0,13.383-7.262,13.91-12.292C279.747,192.73,289.933,196.259,290.023,196.279z M245.81,245.724l-0.555-4.49h41.165
		l-0.554,4.49H245.81z M219.769,231.025c-0.221-18.306-1.787-38.366-6.433-54.132c-2.541-8.623-5.467-15.507-8.705-20.48l0.69-11.74
		c0.854-0.277,1.67-0.688,2.448-1.203l17.934,58.907c-2.146,3.629-2.848,6.769-2.906,7.045c-0.187,0.88,0.114,1.793,0.787,2.39
		l0.688,0.609L219.769,231.025z M277.539,180.001c-0.165,0.15-4.696,5.76-11.702,5.76c-7.006,0-11.537-5.609-11.702-5.76
		c-4.182-5.202-6.138-13.248-6.138-21.252c0-0.519,0.011-1.026,0.021-1.532h12.818c0.943,0,1.806-0.531,2.231-1.373l2.769-5.479
		l2.769,5.479c0.426,0.842,1.288,1.373,2.231,1.373h12.818c0.011,0.506,0.021,1.014,0.021,1.532
		C283.677,166.753,281.721,174.798,277.539,180.001z M253.353,186.317v0.626l-6.223,2.16l-1.055-4.759h5.189
		C251.927,185.055,252.622,185.716,253.353,186.317z M274.858,191.02c-0.216,4.771-1.574,9.001-9.021,9.001
		c-7.438,0-8.803-4.219-9.02-9.003c0.746-0.313,1.283-0.96,1.463-1.732c2.319,0.96,4.848,1.474,7.557,1.474
		c2.709,0,5.237-0.513,7.557-1.474C273.573,190.059,274.111,190.707,274.858,191.02z M248.697,136.925
		c7.259-7.259,17.091-6.848,17.168-6.848c0.061,0,9.761-0.495,17.014,6.758c8.502,8.501,13.519,22.424,13.872,42.508h-12.746
		c2.989-5.375,4.672-12.408,4.672-20.595c0-1.441-0.041-2.849-0.122-4.184c-0.08-1.328-1.179-2.343-2.495-2.339v-0.009h-13.685
		l-4.307-8.522l-0.007,0.003c-0.232-0.46-0.602-0.857-1.097-1.107c-1.236-0.623-2.736-0.129-3.359,1.104l-4.307,8.522h-13.684v0.009
		c-1.334-0.005-2.416,1.012-2.495,2.339c-0.081,1.335-0.122,2.743-0.122,4.184c0,8.187,1.683,15.22,4.672,20.595h-12.746
		c0.178-10.074,1.442-18.688,3.774-25.802c0.085-0.176,0.153-0.359,0.194-0.553C241.184,146.24,244.603,141.02,248.697,136.925z
		 M225.139,112.938l8.719,39.36c-2.629,8.168-3.956,18.034-3.956,29.546c0,1.381,1.119,2.5,2.5,2.5h8.554l1.419,6.41l-1.968,0.683
		c-4.814,1.123-8.36,3.451-10.959,6.068l-17.729-58.232c0.764-1.215,1.435-2.579,1.963-4.109c2.184-6.327,1.925-15.502-3.808-20.698
		c-1.023-0.929-2.605-0.849-3.531,0.173c-0.927,1.023-0.85,2.604,0.174,3.532c3.871,3.509,4.157,10.384,2.438,15.361
		c-1.341,3.884-3.715,6.408-6.194,6.585c-1.252,0.09-2.243,1.094-2.317,2.347l-0.852,14.491c-0.032,0.553,0.119,1.1,0.432,1.557
		c3.085,4.515,5.906,11.045,8.395,19.394c-0.35,5.397-10.013,5.849-29.71,5.876v-77.956c12.803-0.668,21.674-6.501,23.372-15.179
		l1.997,0.479C220.829,95.065,224.974,112.226,225.139,112.938z M167.312,66.516c-5.263-4.386-8.809-12.531-8.809-21.842v-4.912
		c4.102-1.093,13.27-4.213,17.703-11.093c4.434,6.88,13.602,10,17.703,11.093v4.912c0,9.31-3.545,17.454-8.807,21.84
		c-0.192,0.118-3.821,3.438-8.896,3.438C171.131,69.953,167.502,66.634,167.312,66.516z M145.785,63.454
		c-7.714-11.369,0.022-31.186,0.102-31.385c0.117-0.294,0.178-0.609,0.178-0.925c0-7.677,2.309-13.792,6.862-18.176
		c8.738-8.413,23.939-7.973,23.283-7.973c-0.656,0,14.475-0.477,23.253,7.952c4.567,4.386,6.884,10.508,6.884,18.197
		c0,0.317,0.06,0.632,0.178,0.927c0.08,0.199,7.832,19.973,0.108,31.373c-3.348,4.941-9.313,7.652-17.729,8.093v-1.798
		c6.029-5.448,10.006-14.642,10.006-25.064v-6.889c0-1.221-0.876-2.234-2.033-2.453V35.33c-0.182-0.035-18.17-3.589-18.17-15.186
		c0-1.381-1.119-2.5-2.5-2.5c-1.381,0-2.5,1.119-2.5,2.5c0,11.527-17.905,15.134-18.171,15.186v0.002
		c-1.157,0.22-2.032,1.232-2.032,2.453v6.889c0,10.422,3.977,19.615,10.005,25.063v1.799
		C155.096,71.096,149.134,68.389,145.785,63.454z M166.591,86.746c1.124-0.27,1.917-1.275,1.917-2.431V73.15
		c2.405,1.161,4.996,1.803,7.698,1.803c2.702,0,5.291-0.642,7.697-1.802v11.164c0,1.156,0.793,2.161,1.917,2.431l11.382,2.731
		c-1.269,6.899-9.374,11.413-20.996,11.413c-11.624,0-19.729-4.514-20.998-11.413L166.591,86.746z M114.593,224.999
		c-0.018,0.059-0.033,0.118-0.047,0.177c-0.349,1.543-1.277,2.859-2.615,3.704c-1.338,0.846-2.926,1.118-4.467,0.771
		c-1.544-0.349-2.859-1.277-3.704-2.615c-0.845-1.338-1.118-2.924-0.768-4.477l2.917-13.168l12.109,4.357L114.593,224.999z
		 M151.968,142.463c-0.074-1.253-1.065-2.257-2.317-2.347c-2.479-0.177-4.852-2.7-6.192-6.583
		c-1.719-4.978-1.434-11.853,2.438-15.363c1.023-0.927,1.101-2.508,0.174-3.531c-0.928-1.023-2.508-1.102-3.531-0.173
		c-5.732,5.196-5.991,14.372-3.807,20.699c0.528,1.529,1.197,2.892,1.961,4.106l-21.216,69.686l-12.478-4.489l20.271-91.514
		c0.168-0.729,4.311-17.889,21.076-21.83l1.985-0.476c1.699,8.678,10.57,14.51,23.374,15.178v77.956
		c-19.696-0.027-29.36-0.48-29.711-5.876c2.489-8.35,5.313-14.88,8.395-19.395c0.313-0.456,0.464-1.004,0.432-1.557L151.968,142.463
		z M142.237,184.594c2.62,2.108,6.112,2.767,7.704,3.062c6.092,1.127,14.994,1.127,26.265,1.127c11.27,0,20.172,0,26.264-1.127
		c1.588-0.294,5.07-0.951,7.688-3.049c4.869,21.228,5.082,48.39,4.292,68.394c0,0-9.663,40.045-9.696,40.333H141.13
		C139.702,281.399,133.431,222.943,142.237,184.594z M189.61,400.167h-10.904V298.334h22.343
		C200.833,308.193,199.379,346.474,189.61,400.167z M173.706,298.334v101.832h-10.905c-9.763-53.662-11.221-91.97-11.438-101.832
		H173.706z M162.791,405.167h10.915v14.648h-18.729C160.06,414.507,162.05,408.382,162.791,405.167z M178.706,419.815v-14.648
		h10.914c0.741,3.215,2.732,9.341,7.814,14.648H178.706z M216.009,294.662c-0.031,0.09-0.058,0.182-0.078,0.274
		c-0.38,1.697-2.064,2.771-3.768,2.389c-0.821-0.184-1.521-0.676-1.974-1.387c-0.451-0.711-0.599-1.555-0.425-2.334l9.6-39.657
		c0.002-0.009,0.004-0.018,0.006-0.028l9.137-37.747l9.676,8.575l0.56,4.533C238.707,229.356,216.009,294.662,216.009,294.662z
		 M238.739,419.815c1.314-2.84,4.017-6.64,9.07-6.651h10.081l0.002,6.651H238.739z M257.89,408.164h-7.99
		c-1.639-9.398-8.286-49.213-8.648-78.442h16.618L257.89,408.164z M292.936,419.815h-19.152l0.002-6.651h10.079
		C288.919,413.175,291.622,416.977,292.936,419.815z M281.774,408.164h-7.988l0.021-78.442h16.618
		C290.062,358.944,283.413,398.765,281.774,408.164z M307.789,324.721h-83.904c0.76-35.84,17.538-67.556,21.16-73.997h41.587
		C290.255,257.16,307.031,288.839,307.789,324.721z M321.484,295.939c-0.451,0.711-1.151,1.203-1.975,1.387
		c-0.818,0.183-1.666,0.037-2.377-0.415c-0.712-0.451-1.204-1.152-1.387-1.973c-0.021-0.093-0.048-0.186-0.079-0.276
		c0,0-22.699-65.308-22.734-65.384l0.559-4.53l9.677-8.577l18.731,77.39C322.083,294.383,321.936,295.228,321.484,295.939z"/>
	<path d="M185.446,57.734c0-1.381-1.119-2.5-2.5-2.5c-1.189,0-2.185,0.83-2.438,1.943c-0.493,0.32-1.96,0.89-4.303,0.89
		c-2.343,0-3.81-0.57-4.303-0.89c-0.253-1.112-1.248-1.943-2.438-1.943c-1.381,0-2.5,1.119-2.5,2.5c0,3.14,3.8,5.333,9.24,5.333
		C181.647,63.067,185.446,60.874,185.446,57.734z"/>
	<path d="M168.259,45.714c0-0.66-0.26-1.3-0.73-1.77c-0.931-0.93-2.61-0.92-3.54,0c-0.46,0.47-0.73,1.11-0.73,1.77
		c0,0.66,0.27,1.3,0.73,1.77c0.47,0.46,1.109,0.73,1.77,0.73c0.66,0,1.3-0.27,1.77-0.73
		C167.999,47.014,168.259,46.374,168.259,45.714z"/>
	<path d="M186.649,48.214c0.659,0,1.3-0.27,1.77-0.73c0.47-0.47,0.73-1.11,0.73-1.77c0-0.66-0.261-1.3-0.73-1.77
		c-0.93-0.93-2.61-0.93-3.54,0c-0.46,0.47-0.73,1.11-0.73,1.77c0,0.66,0.27,1.3,0.73,1.77
		C185.349,47.944,185.989,48.214,186.649,48.214z"/>
</g>
</svg>